<?xml version="1.0"?>
<svg xmlns="http://www.w3.org/2000/svg" viewBox="0 0 64 64" width="512" height="512"><g id="Cloud_database" data-name="Cloud database"><ellipse cx="32" cy="20" rx="12.916" ry="2"/><path d="M19,25.911c.59.77,5.307,2.089,13,2.089s12.413-1.32,13-2.089V22.205C41.191,23.934,33.165,24,32,24s-9.191-.066-13-1.8Z"/><path d="M4,27a9.011,9.011,0,0,0,9,9h4V31c0-.443.014-1.543,2.725-2.5C18.11,27.918,17,27.115,17,26V20c0-3.888,13.465-4,15-4s15,.112,15,4v6c0,1.115-1.11,1.918-2.726,2.5C46.986,29.457,47,30.557,47,31v5h4a9,9,0,0,0,0-18,1.094,1.094,0,0,1-.81-.356,1.03,1.03,0,0,1-.265-.814,4.959,4.959,0,0,0-3.3-5.554,5.044,5.044,0,0,0-2.778-.142,1,1,0,0,1-1.121-.524,12.009,12.009,0,0,0-21.454,0,1,1,0,0,1-1.121.524,5.036,5.036,0,0,0-2.778.142,4.96,4.96,0,0,0-3.3,5.554A1,1,0,0,1,13.09,18,9.031,9.031,0,0,0,4,27Z"/><path d="M24.29,40.508c-3.395.495-4.8,1.163-5.2,1.5C19.97,42.784,24.614,44,32,44s12.029-1.216,12.911-1.994c-.4-.335-1.8-1-5.2-1.5A63.678,63.678,0,0,1,32,41,63.678,63.678,0,0,1,24.29,40.508Z"/><path d="M45,47.911V44.205C41.191,45.934,33.165,46,32,46s-9.191-.066-13-1.8v3.706c.59.77,5.307,2.089,13,2.089S44.413,48.68,45,47.911Z"/><path d="M61,58H34.816a2.809,2.809,0,0,1,0,2H61a1,1,0,0,0,0-2Z"/><path d="M3,60H29.184a2.809,2.809,0,0,1,0-2H3"/><path d="M31,51.987v4.2a2.809,2.809,0,0,1,2,0v-4.2c-.333,0-.665.013-1,.013S31.333,51.991,31,51.987Z"/><circle cx="32" cy="59" r="2"/><path d="M32,33c7.386,0,12.029-1.216,12.911-1.994-.4-.335-1.8-1-5.2-1.5A63.678,63.678,0,0,1,32,30a63.678,63.678,0,0,1-7.71-.492c-3.395.5-4.8,1.163-5.2,1.5C19.97,31.784,24.614,33,32,33Z"/><path d="M19,36.911c.59.77,5.307,2.089,13,2.089s12.413-1.32,13-2.089V33.205C41.191,34.934,33.165,35,32,35s-9.191-.066-13-1.8Z"/></g></svg>
